<?xml version="1.0" encoding="utf-8"?>
<!-- Generator: Adobe Illustrator 26.0.3, SVG Export Plug-In . SVG Version: 6.00 Build 0)  -->
<svg version="1.1" id="Layer_1" xmlns="http://www.w3.org/2000/svg" xmlns:xlink="http://www.w3.org/1999/xlink" x="0px" y="0px"
	 viewBox="0 0 580.8 114.3" style="enable-background:new 0 0 580.8 114.3;" xml:space="preserve">
<style type="text/css">
	.st0{fill-rule:evenodd;clip-rule:evenodd;fill:#FFFFFF;}
	.st1{fill:#FFFFFF;}
</style>
<path class="st0" d="M122.9,109.1L62.9,0c0,0-41.7,74.7-60.2,109.1L0,114.3l6,0c18.2,0,37.2,0,56.4,0c19.2,0,38.6,0,57.4,0l6.1,0
	L122.9,109.1z M45.9,45.6c-1.7,0-3.8,4-3.8,7.1c13.7,1.8,17.1,6.8,22.3,20.4c-5.2-3.2-12-3.6-15.9-3.6c0-3.2-3-11.6-6.5-13.3
	c-3.4-1.8-5.1,3.3-6.8,6.8C35.2,51,40.4,45.6,45.9,45.6z M56.7,50c6.5,0,9-0.5,15.5,2c-2.2,1.6-4.4,3.2-6.5,4.9
	C65.4,55.3,63.7,51.7,56.7,50z M54.9,114.2c1.9-7.4-0.2-25.5-6.1-34.2c-2-3-5.9-8.3-9.9-6.8c1.4-2.9,6.1-3.5,8.7-3.5
	c0.4,0,0.8,0,1.1,0c0.7,0-4.7,0.7-5.9,1.6c11.4,0,30.5,14.1,31.7,42.9H54.9z M57.2,49c-3.5,0.9-5.2,1.5-5.2,3.7
	c0-4.4-3.1-7.2-6.5-7.1c41-3.8,62.9,36.5,68.8,67.4C105.8,75.6,78.3,43.8,57.2,49z"/>
<g>
	<path class="st1" d="M164.9,1.1h15l22.4,58.3h-14.3l-4.2-12h-23.3l-4.3,12h-13.8L164.9,1.1z M164,37.4h16.2l-8-22.9L164,37.4z"/>
	<path class="st1" d="M210.3,1.1h13.2v47.8h31.6v10.5h-44.8V1.1z"/>
	<path class="st1" d="M263.9,1.1h13.2v47.8h31.6v10.5h-44.8V1.1z"/>
	<path class="st1" d="M329.7,59.4h-13.1V1.1h13.1V59.4z"/>
	<path class="st1" d="M360.1,1.1h15l22.4,58.3h-14.3l-4.2-12h-23.3l-4.3,12h-13.8L360.1,1.1z M359.3,37.4h16.2l-8-22.9L359.3,37.4z"
		/>
	<path class="st1" d="M405.3,1.1h13.9l25.1,40.6V1.1h12.3v58.3h-13.2L417.6,18v41.4h-12.3V1.1z"/>
	<path class="st1" d="M475,7.2c5.1-4.8,11.6-7.2,19.4-7.2c10.5,0,18.2,3.2,23.1,9.6c2.7,3.6,4.1,7.2,4.3,10.9h-13.2
		c-0.8-2.8-1.9-4.9-3.2-6.3c-2.4-2.5-5.8-3.8-10.5-3.8c-4.7,0-8.4,1.8-11.1,5.4s-4.1,8.6-4.1,15.2c0,6.5,1.4,11.4,4.3,14.7
		c2.9,3.3,6.5,4.9,10.9,4.9c4.5,0,8-1.4,10.4-4.2c1.3-1.5,2.4-3.8,3.3-6.8h13.1c-1.1,6.4-4,11.5-8.7,15.5c-4.7,4-10.6,6-17.9,6
		c-9,0-16.1-2.7-21.2-8.1c-5.2-5.4-7.7-12.8-7.7-22.2C466.2,20.6,469.2,12.7,475,7.2z"/>
	<path class="st1" d="M579.2,11.4h-33.5v12.4h30.7v10.1h-30.7v15h35v10.5h-47.9V1.1h46.4V11.4z"/>
</g>
<g>
	<path class="st1" d="M238.9,100.5c0,3.4-0.5,6.1-1.5,8c-1.9,3.5-5.4,5.2-10.7,5.2c-3,0-5.6-0.8-7.8-2.5c-2.2-1.6-3.2-4.6-3.2-8.8
		v-2.9h5.1v2.9c0,2.2,0.5,3.9,1.5,5c1,1.1,2.5,1.7,4.6,1.7c2.9,0,4.8-1,5.7-3c0.6-1.2,0.8-3.6,0.8-7v-27h5.4V100.5z"/>
	<path class="st1" d="M253.6,72.1h5.5v40.4h-5.5V72.1z"/>
	<path class="st1" d="M279.2,72.1v25c0,2.9,0.6,5.4,1.7,7.3c1.6,2.9,4.4,4.4,8.3,4.4c4.7,0,7.9-1.6,9.5-4.8c0.9-1.7,1.4-4,1.4-7v-25
		h5.5v22.7c0,5-0.7,8.8-2,11.5c-2.5,4.9-7.1,7.3-14,7.3s-11.5-2.4-14-7.3c-1.3-2.7-2-6.5-2-11.5V72.1H279.2z"/>
	<path class="st1" d="M359.9,100.5c0,3.4-0.5,6.1-1.5,8c-1.9,3.5-5.4,5.2-10.7,5.2c-3,0-5.6-0.8-7.8-2.5c-2.2-1.6-3.2-4.6-3.2-8.8
		v-2.9h5.1v2.9c0,2.2,0.5,3.9,1.5,5c1,1.1,2.5,1.7,4.6,1.7c2.9,0,4.8-1,5.7-3c0.6-1.2,0.8-3.6,0.8-7v-27h5.4V100.5z"/>
	<path class="st1" d="M374.6,72.1h5.5v40.4h-5.5V72.1z"/>
	<path class="st1" d="M423.6,72.1v4.8H410v35.6h-5.5V76.9h-13.6v-4.8H423.6z"/>
	<path class="st1" d="M437.4,99.5c0.1,2.3,0.6,4.2,1.6,5.6c1.8,2.7,4.8,4,9.3,4c2,0,3.8-0.3,5.4-0.9c3.1-1.1,4.7-3.2,4.7-6.1
		c0-2.2-0.7-3.8-2-4.7c-1.4-0.9-3.5-1.7-6.3-2.4l-5.3-1.2c-3.5-0.8-5.9-1.7-7.4-2.7c-2.5-1.7-3.7-4.2-3.7-7.6c0-3.6,1.2-6.6,3.7-8.9
		c2.4-2.3,5.9-3.5,10.4-3.5c4.1,0,7.6,1,10.5,3.1c2.9,2,4.3,5.3,4.3,9.8h-5.1c-0.3-2.2-0.8-3.8-1.7-5c-1.6-2.1-4.3-3.2-8.2-3.2
		c-3.1,0-5.3,0.7-6.7,2c-1.4,1.4-2,2.9-2,4.7c0,2,0.8,3.4,2.4,4.3c1,0.6,3.4,1.3,7.1,2.2l5.5,1.3c2.7,0.6,4.7,1.5,6.1,2.6
		c2.5,1.9,3.7,4.6,3.7,8.2c0,4.5-1.6,7.7-4.8,9.6c-3.2,1.9-6.9,2.9-11.1,2.9c-4.9,0-8.7-1.3-11.5-3.9c-2.8-2.6-4.1-6-4.1-10.4H437.4
		z"/>
	<path class="st1" d="M482.6,72.1v25c0,2.9,0.6,5.4,1.7,7.3c1.6,2.9,4.4,4.4,8.3,4.4c4.7,0,7.9-1.6,9.5-4.8c0.9-1.7,1.4-4,1.4-7v-25
		h5.5v22.7c0,5-0.7,8.8-2,11.5c-2.5,4.9-7.1,7.3-14,7.3s-11.5-2.4-14-7.3c-1.3-2.7-2-6.5-2-11.5V72.1H482.6z"/>
</g>
</svg>
